<?xml version="1.0" encoding="utf-8"?>
<!-- Generator: Adobe Illustrator 16.0.0, SVG Export Plug-In . SVG Version: 6.00 Build 0)  -->
<!DOCTYPE svg PUBLIC "-//W3C//DTD SVG 1.1//EN" "http://www.w3.org/Graphics/SVG/1.1/DTD/svg11.dtd">
<svg version="1.1" id="Layer_2" xmlns="http://www.w3.org/2000/svg" xmlns:xlink="http://www.w3.org/1999/xlink" x="0px" y="0px"
	 width="109.167px" height="108.667px" viewBox="0 0 109.167 108.667" enable-background="new 0 0 109.167 108.667"
	 xml:space="preserve">
<g>
	<path d="M24.758,1.414c-0.777-0.777-2.051-0.777-2.828,0L1.414,21.929c-0.777,0.777-0.777,2.051,0,2.828l2.052,2.053
		c0.777,0.777,2.051,0.777,2.828,0L26.81,6.294c0.777-0.777,0.777-2.051,0-2.828L24.758,1.414z"/>
</g>
<g>
	<path fill="#050706" d="M66.605,81.022l5.754-45.324l9.748,1.238l-0.725,5.707c1.342-2.116,2.961-3.646,4.858-4.59
		c1.421-0.707,2.895-1.075,4.42-1.104c-0.376-4.327-0.623-9.037-0.546-13.714c0.467-5.584-4.225-5.553-6.576-5.293
		c-7.204,0.799-14.813,0.408-22.488-1.363c-9.533-2.2-17.043-5.514-24.102-10.838c-4.107-2.143-7.234,1.23-7.234,1.23L6.153,30.534
		c0,0-1.999,2.846,0.246,5.881c1.173,1.587,1.921,2.514,3.044,4.193c1.793,2.678,3.354,5.43,4.709,8.227
		c1.192-5.8,3.847-10.428,7.966-13.886c4.7-3.946,10.005-5.545,15.914-4.794c2.718,0.345,5.204,1.183,7.459,2.513
		c2.256,1.331,4.265,3.152,6.029,5.464l0.635-4.998l11.373,1.443l-5.754,45.324l-11.373-1.444l0.607-4.791
		c-2.486,1.829-4.906,3.067-7.257,3.714c-2.352,0.646-4.831,0.805-7.438,0.474c-4.581-0.582-8.491-2.512-11.75-5.751
		c0.389,4.308,0.358,8.303-0.315,12.549c-0.37,2.331,2,7.166,7.379,6.879c17.447-1.045,40.592,0.367,62.112,14.701
		c-0.006,0.006-0.02,0.016-0.02,0.016s0.113,0.07,0.301,0.174c0.895,0.494,3.664,1.777,5.771,0.189
		c0.146-0.109,0.289-0.227,0.428-0.363c-0.01-0.012-0.021-0.02-0.033-0.029l1.91-1.912l1.893-1.893L84.507,86.93
		C78.75,81.593,72.88,82.156,66.605,81.022z M67.164,82.284l0.219-0.693l0.135,0.104L67.164,82.284z"/>
	<path fill="#050706" d="M106.387,89.446c-0.033-0.052-0.059-0.102-0.094-0.154c-8.248-13.763-13.166-33.047-14.156-39.883
		c-0.063-0.434-0.128-0.89-0.194-1.359l-0.039,0.077c-1.248-0.836-2.304-1.308-3.163-1.417c-1.75-0.223-3.365,0.673-4.85,2.686
		c-1.482,2.013-2.626,6.186-3.43,12.518l-0.238,2.213l-0.647,5.1c-0.519,5.775,3.606,11.307,7.156,15.085l15.681,15.681l1.893-1.893
		l2.822-2.82v-0.002C107.133,95.269,108.613,92.951,106.387,89.446z"/>
	<path fill="#050706" d="M35.661,67.696c3.571,0.453,6.689-0.413,9.358-2.601c2.668-2.187,4.258-5.293,4.77-9.32
		c0.5-3.943-0.271-7.286-2.313-10.029c-2.042-2.742-4.861-4.343-8.459-4.8c-3.517-0.445-6.595,0.427-9.235,2.617
		c-2.64,2.19-4.207,5.229-4.701,9.117c-0.497,3.916,0.276,7.288,2.323,10.115C29.449,65.624,32.201,67.257,35.661,67.696z"/>
</g>
</svg>
