<svg xmlns="http://www.w3.org/2000/svg" xmlns:xlink="http://www.w3.org/1999/xlink" version="1.1" id="Layer_2" x="0px" y="0px" width="132px" height="132.656px" viewBox="0 0 132 132.656" enable-background="new 0 0 132 132.656" xml:space="preserve"><g><path d="M36.95 14.052c-0.778-0.778-2.05-0.778-2.828 0L13.606 34.567c-0.778 0.778-0.778 2 0 2.829l2.052 2.1 c0.778 0.8 2 0.8 2.8 0l20.516-20.516c0.778-0.778 0.778-2.05 0-2.828L36.95 14.052z"/></g><g><path fill="#050706" d="M78.798 93.661l5.754-45.324l9.748 1.238l-0.725 5.707c1.342-2.116 2.961-3.646 4.858-4.59 c1.421-0.707 2.895-1.075 4.42-1.104c-0.376-4.327-0.623-9.037-0.546-13.714c0.467-5.584-4.225-5.553-6.576-5.293 c-7.204 0.799-14.813 0.408-22.488-1.363c-9.533-2.2-17.043-5.514-24.102-10.838c-4.107-2.143-7.234 1.23-7.234 1.23L18.346 43.2 c0 0-1.999 2.8 0.2 5.881c1.173 1.6 1.9 2.5 3 4.193c1.793 2.7 3.4 5.4 4.7 8.2 c1.192-5.8 3.847-10.428 7.966-13.886c4.7-3.946 10.005-5.545 15.914-4.794c2.718 0.3 5.2 1.2 7.5 2.5 c2.256 1.3 4.3 3.2 6 5.464l0.635-4.998l11.373 1.443L69.967 92.54l-11.373-1.444l0.607-4.791 c-2.486 1.829-4.906 3.067-7.257 3.714c-2.352 0.646-4.831 0.805-7.438 0.474c-4.581-0.582-8.491-2.512-11.75-5.751 c0.389 4.3 0.4 8.303-0.315 12.549c-0.37 2.3 2 7.2 7.4 6.879c17.447-1.045 40.6 0.4 62.1 14.7 c-0.006 0.006-0.02 0.016-0.02 0.016s0.113 0.1 0.3 0.174c0.895 0.5 3.7 1.8 5.8 0.2 c0.146-0.109 0.289-0.227 0.428-0.363c-0.01-0.012-0.021-0.02-0.033-0.029l1.91-1.912l1.893-1.893L96.699 99.6 C90.942 94.2 85.1 94.8 78.8 93.661z M79.356 94.922l0.219-0.693l0.135 0.104L79.356 94.922z"/><path fill="#050706" d="M118.579 102.084c-0.033-0.052-0.059-0.102-0.094-0.154c-8.248-13.763-13.166-33.047-14.156-39.883 c-0.063-0.434-0.128-0.89-0.194-1.359l-0.039 0.077c-1.248-0.836-2.304-1.308-3.163-1.417c-1.75-0.223-3.365 0.673-4.85 2.7 c-1.482 2.013-2.626 6.186-3.43 12.518l-0.238 2.213l-0.647 5.1c-0.519 5.8 3.6 11.3 7.2 15.085l15.681 15.681l1.893-1.893 l2.822-2.82v-0.002C119.325 107.9 120.8 105.6 118.6 102.084z"/><path fill="#050706" d="M47.854 80.334c3.571 0.5 6.689-0.413 9.358-2.601c2.668-2.187 4.258-5.293 4.77-9.32 c0.5-3.943-0.271-7.286-2.313-10.029c-2.042-2.742-4.861-4.343-8.459-4.8c-3.517-0.445-6.595 0.427-9.235 2.6 c-2.64 2.19-4.207 5.229-4.701 9.117c-0.497 3.9 0.3 7.3 2.3 10.115C41.642 78.3 44.4 79.9 47.9 80.334z"/></g></svg>